<?xml version="1.0" standalone="no"?>
<!DOCTYPE svg PUBLIC "-//W3C//DTD SVG 20010904//EN"
 "http://www.w3.org/TR/2001/REC-SVG-20010904/DTD/svg10.dtd">
<svg version="1.0" xmlns="http://www.w3.org/2000/svg"
 width="260.000000pt" height="260.000000pt" viewBox="0 0 260.000000 260.000000"
 preserveAspectRatio="xMidYMid meet">
<metadata>
Created by potrace 1.14, written by Peter Selinger 2001-2017
</metadata>
<g transform="translate(0.000000,260.000000) scale(0.100000,-0.100000)"
fill="#000000" stroke="none">
<path d="M0 1300 l0 -1300 1300 0 1300 0 0 1300 0 1300 -1300 0 -1300 0 0
-1300z m543 358 c21 -11 23 -70 2 -91 -12 -13 -12 -19 -1 -44 8 -15 16 -43 20
-61 9 -49 -16 -36 -26 14 -9 43 -30 64 -65 64 -21 0 -23 -4 -23 -55 0 -30 -4
-55 -10 -55 -6 0 -10 46 -10 119 0 116 1 120 23 124 25 4 64 -2 90 -15z m445
16 c36 -10 25 -26 -13 -18 -69 13 -125 -34 -125 -105 0 -70 37 -104 112 -102
54 1 57 -14 6 -21 -82 -12 -138 36 -138 120 0 56 21 95 62 115 35 18 60 20 96
11z m595 -26 c22 -26 22 -50 -2 -79 -16 -20 -17 -26 -6 -44 18 -28 30 -95 17
-95 -6 0 -13 15 -17 33 -11 52 -32 77 -65 77 -30 0 -30 -1 -30 -55 0 -30 -4
-55 -10 -55 -6 0 -10 46 -10 119 0 116 1 120 23 124 38 6 81 -4 100 -25z m381
26 c25 -10 18 -25 -8 -18 -70 17 -90 -57 -24 -88 21 -10 45 -29 53 -42 20 -29
11 -72 -17 -87 -26 -14 -87 -14 -101 0 -17 17 -3 23 27 12 31 -12 70 0 80 25
8 22 -17 61 -46 69 -38 12 -58 36 -58 71 0 48 46 76 94 58z m-1760 -26 c38
-54 -1 -118 -70 -118 l-34 0 0 -50 c0 -27 -4 -50 -10 -50 -6 0 -10 47 -10 120
l0 120 54 0 c45 0 58 -4 70 -22z m147 -84 c21 -54 38 -107 39 -116 0 -32 -17
-19 -29 22 -12 40 -12 40 -61 40 -49 0 -49 0 -61 -40 -7 -22 -16 -40 -21 -40
-15 0 -13 7 67 228 11 29 30 2 66 -94z m399 96 c0 -5 -16 -10 -35 -10 l-35 0
0 -110 c0 -91 -3 -110 -15 -110 -12 0 -15 19 -15 110 0 118 0 118 -57 111 -7
-1 -13 3 -13 9 0 6 33 10 85 10 50 0 85 -4 85 -10z m40 -110 c0 -73 -4 -120
-10 -120 -6 0 -10 47 -10 120 0 73 4 120 10 120 6 0 10 -47 10 -120z m270 0
c0 -73 -4 -120 -10 -120 -6 0 -10 47 -10 120 0 73 4 120 10 120 6 0 10 -47 10
-120z m172 103 c10 -9 18 -30 18 -49 0 -39 -38 -74 -81 -74 -28 0 -29 -2 -29
-51 0 -36 -4 -49 -12 -47 -9 3 -14 39 -16 121 l-3 117 52 0 c35 0 59 -6 71
-17z m152 -91 c21 -59 41 -113 43 -119 3 -7 0 -13 -6 -13 -6 0 -18 18 -27 40
-16 39 -18 40 -64 40 -46 0 -47 -1 -59 -40 -6 -22 -16 -40 -21 -40 -15 0 -13
6 31 128 23 61 47 112 53 112 6 0 28 -48 50 -108z m446 98 c0 -5 -22 -10 -50
-10 l-50 0 0 -40 0 -40 50 0 c28 0 50 -4 50 -10 0 -5 -22 -10 -50 -10 l-50 0
0 -50 0 -50 55 0 c30 0 55 -4 55 -10 0 -6 -28 -10 -65 -10 l-65 0 0 120 0 120
60 0 c33 0 60 -4 60 -10z m302 -86 c3 -86 5 -98 27 -115 13 -10 29 -19 36 -19
7 0 23 9 36 19 22 17 24 29 27 115 2 55 8 96 14 96 6 0 9 -38 6 -100 -4 -117
-18 -142 -83 -142 -65 0 -79 25 -83 142 -3 62 0 100 6 100 6 0 12 -41 14 -96z
m283 -1 l65 -98 0 98 c0 58 4 97 10 97 6 0 10 -47 10 -120 0 -66 -4 -120 -9
-120 -4 0 -37 44 -72 97 l-64 97 -3 -97 c-4 -140 -22 -122 -22 23 0 72 4 120
10 120 5 0 39 -44 75 -97z m-708 -220 c10 -4 12 -14 7 -37 -9 -44 -9 -44 -56
-34 -86 20 -152 -33 -152 -122 0 -87 45 -124 141 -118 56 3 63 -2 63 -47 0
-29 -16 -35 -89 -35 -137 0 -214 70 -215 195 0 69 29 134 76 168 53 39 162 54
225 30z m721 -10 c55 -26 86 -84 90 -168 3 -58 0 -80 -17 -112 -40 -80 -101
-110 -201 -101 -88 9 -145 71 -157 168 -20 171 132 285 285 213z m-2093 -9
c121 -63 119 -270 -3 -342 -43 -25 -56 -27 -152 -27 l-105 0 -3 185 c-1 101 0
191 3 198 9 23 209 13 260 -14z m385 -14 l0 -40 -75 0 -75 0 0 -35 0 -35 70 0
70 0 0 -40 0 -40 -70 0 -70 0 0 -45 0 -45 81 0 80 0 -3 -37 -3 -38 -125 0
-125 0 -3 185 c-1 101 0 190 2 197 4 10 37 13 126 13 l120 0 0 -40z m278 29
c41 -14 62 -49 62 -102 0 -33 -6 -51 -25 -71 -23 -25 -24 -29 -10 -50 9 -13
24 -53 34 -90 21 -75 18 -80 -41 -74 -31 3 -34 7 -54 67 -21 66 -50 98 -79 87
-12 -4 -15 -23 -15 -81 l0 -75 -45 0 -45 0 0 200 0 200 94 0 c51 0 107 -5 124
-11z m367 -29 l0 -35 -77 -3 -78 -3 0 -34 0 -34 73 -3 72 -3 3 -37 3 -37 -73
-3 -73 -3 0 -40 0 -40 78 -3 77 -3 0 -39 0 -40 -125 0 -125 0 0 200 0 201 123
-3 122 -3 0 -35z m495 -35 l0 -75 70 0 70 0 0 75 0 75 45 0 45 0 0 -200 0
-200 -45 0 -44 0 -3 83 -3 82 -67 3 -67 3 -3 -83 -3 -83 -45 0 -45 0 0 190
c-1 105 1 193 3 198 2 4 23 7 48 7 l44 0 0 -75z m-1307 -392 c-7 -3 -14 -14
-14 -26 -1 -18 -2 -19 -6 -4 -5 19 16 52 26 41 3 -4 0 -9 -6 -11z m-476 -30
c-3 -10 -5 -4 -5 12 0 17 2 24 5 18 2 -7 2 -21 0 -30z m130 0 c-3 -10 -5 -4
-5 12 0 17 2 24 5 18 2 -7 2 -21 0 -30z m70 0 c-3 -10 -5 -4 -5 12 0 17 2 24
5 18 2 -7 2 -21 0 -30z m702 -3 c1 -3 -8 -6 -18 -6 -11 0 -18 3 -17 6 2 3 6
14 11 25 l7 20 8 -20 c5 -11 9 -22 9 -25z m48 8 c-3 -7 -5 -2 -5 12 0 14 2 19
5 13 2 -7 2 -19 0 -25z m80 -5 c-3 -10 -5 -4 -5 12 0 17 2 24 5 18 2 -7 2 -21
0 -30z m353 5 c0 -5 -7 -8 -15 -8 -17 0 -18 2 -9 25 5 13 8 14 15 3 5 -7 9
-16 9 -20z m207 1 c1 -19 1 -20 -4 -4 -3 11 -10 24 -17 28 -7 6 -6 7 4 4 8 -2
16 -14 17 -28z m57 16 c3 -8 1 -15 -4 -15 -6 0 -10 7 -10 15 0 8 2 15 4 15 2
0 6 -7 10 -15z m123 -22 c-3 -10 -5 -4 -5 12 0 17 2 24 5 18 2 -7 2 -21 0 -30z
m60 0 c-3 -10 -5 -4 -5 12 0 17 2 24 5 18 2 -7 2 -21 0 -30z m84 18 c7 11 9 9
9 -7 0 -12 -6 -21 -15 -21 -10 0 -15 9 -14 26 1 20 3 21 6 7 4 -15 7 -16 14
-5z m56 -13 c-3 -7 -5 -2 -5 12 0 14 2 19 5 13 2 -7 2 -19 0 -25z m288 4 c1
-16 -2 -19 -11 -11 -8 7 -14 6 -17 -3 -3 -7 -6 -4 -6 8 -2 40 31 46 34 6z
m-2228 -14 c-3 -7 -5 -2 -5 12 0 14 2 19 5 13 2 -7 2 -19 0 -25z m50 0 c-3 -7
-5 -2 -5 12 0 14 2 19 5 13 2 -7 2 -19 0 -25z m70 0 c-3 -7 -5 -2 -5 12 0 14
2 19 5 13 2 -7 2 -19 0 -25z m119 12 c0 -12 -4 -16 -9 -11 -5 5 -6 14 -3 20
10 15 12 14 12 -9z m141 -12 c-3 -7 -5 -2 -5 12 0 14 2 19 5 13 2 -7 2 -19 0
-25z m90 10 c-3 -8 -6 -5 -6 6 -1 11 2 17 5 13 3 -3 4 -12 1 -19z m83 -10 c0
-13 -18 -9 -23 5 -4 9 -8 8 -16 -3 -9 -13 -11 -13 -11 1 0 9 3 18 6 22 7 7 44
-14 44 -25z m87 0 c-3 -7 -5 -2 -5 12 0 14 2 19 5 13 2 -7 2 -19 0 -25z m300
0 c-3 -7 -5 -2 -5 12 0 14 2 19 5 13 2 -7 2 -19 0 -25z m240 0 c-3 -7 -5 -2
-5 12 0 14 2 19 5 13 2 -7 2 -19 0 -25z m30 0 c-3 -7 -5 -2 -5 12 0 14 2 19 5
13 2 -7 2 -19 0 -25z m50 0 c-3 -7 -5 -2 -5 12 0 14 2 19 5 13 2 -7 2 -19 0
-25z m140 0 c-3 -7 -5 -2 -5 12 0 14 2 19 5 13 2 -7 2 -19 0 -25z m239 -5
c-11 -11 -17 4 -9 23 7 18 8 18 11 1 2 -10 1 -21 -2 -24z m321 5 c-3 -7 -5 -2
-5 12 0 14 2 19 5 13 2 -7 2 -19 0 -25z m160 0 c-3 -7 -5 -2 -5 12 0 14 2 19
5 13 2 -7 2 -19 0 -25z m40 10 c-3 -8 -6 -5 -6 6 -1 11 2 17 5 13 3 -3 4 -12
1 -19z m187 6 c8 -21 9 -20 -13 -20 -12 0 -17 6 -13 18 5 22 18 23 26 2z m53
-16 c-3 -7 -5 -2 -5 12 0 14 2 19 5 13 2 -7 2 -19 0 -25z m-1726 -1 c-10 -9
-11 -8 -5 6 3 10 9 15 12 12 3 -3 0 -11 -7 -18z m433 7 c3 -8 2 -12 -4 -9 -6
3 -10 10 -10 16 0 14 7 11 14 -7z m420 0 c3 -8 2 -12 -4 -9 -6 3 -10 10 -10
16 0 14 7 11 14 -7z"/>
<path d="M463 1653 c-8 -3 -13 -23 -13 -49 0 -43 1 -44 33 -44 38 0 57 15 57
46 0 32 -46 60 -77 47z"/>
<path d="M1493 1653 c-8 -3 -13 -23 -13 -49 0 -44 0 -44 34 -44 62 0 84 70 29
91 -26 10 -32 10 -50 2z"/>
<path d="M113 1653 c-8 -3 -13 -24 -13 -54 l0 -49 35 0 c45 0 74 38 57 75 -7
14 -18 25 -26 25 -8 0 -20 2 -28 4 -7 3 -19 2 -25 -1z"/>
<path d="M286 1596 c-23 -55 -21 -66 14 -66 34 0 37 12 16 70 l-13 35 -17 -39z"/>
<path d="M1153 1653 c-8 -3 -13 -24 -13 -54 0 -48 1 -49 29 -49 72 0 85 84 16
103 -11 3 -26 3 -32 0z"/>
<path d="M1321 1607 c-6 -15 -14 -39 -17 -52 -6 -23 -3 -25 31 -25 40 0 40 3
10 75 l-13 30 -11 -28z"/>
<path d="M2279 1262 c-26 -23 -31 -36 -35 -87 -4 -49 -1 -66 15 -93 26 -41 60
-55 101 -41 39 14 60 55 60 119 0 113 -71 164 -141 102z"/>
<path d="M172 1163 l3 -128 35 3 c47 3 79 21 96 54 17 33 18 108 3 142 -14 30
-65 56 -108 56 l-32 0 3 -127z"/>
<path d="M870 1240 l0 -50 34 0 c38 0 66 21 66 50 0 29 -28 50 -66 50 l-34 0
0 -50z"/>
</g>
</svg>
